<?xml version="1.0" encoding="UTF-8" standalone="no"?>
<!-- Created with Inkscape (http://www.inkscape.org/) -->

<svg
   xmlns:dc="http://purl.org/dc/elements/1.1/"
   xmlns:cc="http://creativecommons.org/ns#"
   xmlns:rdf="http://www.w3.org/1999/02/22-rdf-syntax-ns#"
   xmlns:svg="http://www.w3.org/2000/svg"
   xmlns="http://www.w3.org/2000/svg"
   xmlns:sodipodi="http://sodipodi.sourceforge.net/DTD/sodipodi-0.dtd"
   xmlns:inkscape="http://www.inkscape.org/namespaces/inkscape"
   width="43.5mm"
   height="15.2mm"
   viewBox="0 0 43.5 15.2"
   version="1.1"
   id="svg8"
   inkscape:version="0.92.4 (5da689c313, 2019-01-14)"
   sodipodi:docname="RS485_XY-017_pcb.svg">
  <defs
     id="defs2" />
  <sodipodi:namedview
     id="base"
     pagecolor="#ffffff"
     bordercolor="#666666"
     borderopacity="1.0"
     inkscape:pageopacity="0.0"
     inkscape:pageshadow="2"
     inkscape:zoom="6.0689715"
     inkscape:cx="73.601598"
     inkscape:cy="39.195203"
     inkscape:document-units="mm"
     inkscape:current-layer="layer1"
     showgrid="true"
     inkscape:snap-grids="false"
     inkscape:snap-to-guides="true"
     showguides="true"
     inkscape:guide-bbox="true"
     inkscape:window-width="1920"
     inkscape:window-height="1017"
     inkscape:window-x="-8"
     inkscape:window-y="-8"
     inkscape:window-maximized="1">
    <sodipodi:guide
       position="1.8283188,11.329818"
       orientation="1,0"
       id="guide828"
       inkscape:locked="false" />
    <inkscape:grid
       type="xygrid"
       id="grid830"
       spacingx="0.26458"
       spacingy="5.0799999"
       originy="-2.61"
       units="mm" />
    <sodipodi:guide
       position="13.043191,2.5367309"
       orientation="0,1"
       id="guide948"
       inkscape:locked="false" />
    <sodipodi:guide
       position="36.76948,9.1971506"
       orientation="1,0"
       id="guide1235"
       inkscape:locked="false" />
    <sodipodi:guide
       position="12.8776,13.385163"
       orientation="0,1"
       id="guide1299"
       inkscape:locked="false" />
    <sodipodi:guide
       position="39.559606,9.9883534"
       orientation="1,0"
       id="guide1856"
       inkscape:locked="false" />
    <sodipodi:guide
       position="41.663318,16.038635"
       orientation="1,0"
       id="guide1868"
       inkscape:locked="false" />
  </sodipodi:namedview>
  <metadata
     id="metadata5">
    <rdf:RDF>
      <cc:Work
         rdf:about="">
        <dc:format>image/svg+xml</dc:format>
        <dc:type
           rdf:resource="http://purl.org/dc/dcmitype/StillImage" />
        <dc:title></dc:title>
      </cc:Work>
    </rdf:RDF>
  </metadata>
  <g
     inkscape:label="Layer 1"
     inkscape:groupmode="layer"
     id="layer1"
     transform="translate(0,-281.8)">
    <g
       aria-label="TXD"
       style="font-style:normal;font-variant:normal;font-weight:bold;font-stretch:normal;font-size:1.41111112px;line-height:1.25;font-family:'Droid Sans';-inkscape-font-specification:'Droid Sans, Bold';font-variant-ligatures:normal;font-variant-caps:normal;font-variant-numeric:normal;font-feature-settings:normal;text-align:start;letter-spacing:0px;word-spacing:0px;writing-mode:lr-tb;text-anchor:start;fill:#ffffff;fill-opacity:1;stroke:none;stroke-width:0.26458332"
       id="text1486" />
    <g
       aria-label="RXD"
       style="font-style:normal;font-variant:normal;font-weight:bold;font-stretch:normal;font-size:1.41111112px;line-height:1.25;font-family:'Droid Sans';-inkscape-font-specification:'Droid Sans, Bold';font-variant-ligatures:normal;font-variant-caps:normal;font-variant-numeric:normal;font-feature-settings:normal;text-align:start;letter-spacing:0px;word-spacing:0px;writing-mode:lr-tb;text-anchor:start;fill:#ffffff;fill-opacity:1;stroke:none;stroke-width:0.26458332"
       id="text1486-0" />
    <g
       aria-label="RXD"
       transform="rotate(-90)"
       style="font-style:normal;font-variant:normal;font-weight:bold;font-stretch:normal;font-size:1.41111112px;line-height:1.25;font-family:'Droid Sans';-inkscape-font-specification:'Droid Sans, Bold';font-variant-ligatures:normal;font-variant-caps:normal;font-variant-numeric:normal;font-feature-settings:normal;text-align:start;letter-spacing:0px;word-spacing:0px;writing-mode:lr-tb;text-anchor:start;fill:#ffffff;fill-opacity:1;stroke:none;stroke-width:0.26458332"
       id="text1486-0-2" />
    <g
       aria-label="TXD"
       transform="rotate(-90)"
       style="font-style:normal;font-variant:normal;font-weight:bold;font-stretch:normal;font-size:1.41111112px;line-height:1.25;font-family:'Droid Sans';-inkscape-font-specification:'Droid Sans, Bold';font-variant-ligatures:normal;font-variant-caps:normal;font-variant-numeric:normal;font-feature-settings:normal;text-align:start;letter-spacing:0px;word-spacing:0px;writing-mode:lr-tb;text-anchor:start;fill:#ffffff;fill-opacity:1;stroke:none;stroke-width:0.26458332"
       id="text1486-0-2-5" />
    <g
       aria-label="GND"
       transform="rotate(-90)"
       style="font-style:normal;font-variant:normal;font-weight:bold;font-stretch:normal;font-size:1.41111112px;line-height:1.25;font-family:'Droid Sans';-inkscape-font-specification:'Droid Sans, Bold';font-variant-ligatures:normal;font-variant-caps:normal;font-variant-numeric:normal;font-feature-settings:normal;text-align:start;letter-spacing:0px;word-spacing:0px;writing-mode:lr-tb;text-anchor:start;fill:#ffffff;fill-opacity:1;stroke:none;stroke-width:0.26458332"
       id="text1486-0-2-5-2" />
    <g
       aria-label="VCC"
       transform="rotate(-90)"
       style="font-style:normal;font-variant:normal;font-weight:bold;font-stretch:normal;font-size:1.41111112px;line-height:1.25;font-family:'Droid Sans';-inkscape-font-specification:'Droid Sans, Bold';font-variant-ligatures:normal;font-variant-caps:normal;font-variant-numeric:normal;font-feature-settings:normal;text-align:start;letter-spacing:0px;word-spacing:0px;writing-mode:lr-tb;text-anchor:start;fill:#ffffff;fill-opacity:1;stroke:none;stroke-width:0.26458332"
       id="text1486-0-2-5-8" />
    <g
       aria-label="B+"
       transform="rotate(-90)"
       style="font-style:normal;font-variant:normal;font-weight:bold;font-stretch:normal;font-size:2.46944451px;line-height:1.25;font-family:'Droid Sans';-inkscape-font-specification:'Droid Sans, Bold';font-variant-ligatures:normal;font-variant-caps:normal;font-variant-numeric:normal;font-feature-settings:normal;text-align:start;letter-spacing:0px;word-spacing:0px;writing-mode:lr-tb;text-anchor:start;fill:#ffffff;fill-opacity:1;stroke:none;stroke-width:0.26458332"
       id="text1486-0-2-4" />
    <g
       id="g1998"
       transform="translate(-0.15258628)">
      <g
         aria-label="A+"
         style="font-style:normal;font-variant:normal;font-weight:bold;font-stretch:normal;font-size:1.41111112px;line-height:1.25;font-family:'Droid Sans';-inkscape-font-specification:'Droid Sans, Bold';font-variant-ligatures:normal;font-variant-caps:normal;font-variant-numeric:normal;font-feature-settings:normal;text-align:start;letter-spacing:0px;word-spacing:0px;writing-mode:lr-tb;text-anchor:start;fill:#000000;fill-opacity:1;stroke:none;stroke-width:0.07000434"
         id="text1892" />
      <g
         aria-label="B+"
         style="font-style:normal;font-variant:normal;font-weight:bold;font-stretch:normal;font-size:1.41111112px;line-height:1.25;font-family:'Droid Sans';-inkscape-font-specification:'Droid Sans, Bold';font-variant-ligatures:normal;font-variant-caps:normal;font-variant-numeric:normal;font-feature-settings:normal;text-align:start;letter-spacing:0px;word-spacing:0px;writing-mode:lr-tb;text-anchor:start;fill:#000000;fill-opacity:1;stroke:none;stroke-width:0.07000434"
         id="text1892-3" />
      <g
         aria-label="GND"
         style="font-style:normal;font-variant:normal;font-weight:bold;font-stretch:normal;font-size:1.41111112px;line-height:1.25;font-family:'Droid Sans';-inkscape-font-specification:'Droid Sans, Bold';font-variant-ligatures:normal;font-variant-caps:normal;font-variant-numeric:normal;font-feature-settings:normal;text-align:start;letter-spacing:0px;word-spacing:0px;writing-mode:lr-tb;text-anchor:start;fill:#000000;fill-opacity:1;stroke:none;stroke-width:0.26458332"
         id="text1922-2-4" />
    </g>
    <g
       id="text1922"
       style="font-style:normal;font-variant:normal;font-weight:normal;font-stretch:normal;font-size:1.76388884px;line-height:1.25;font-family:'OCR A Extended';-inkscape-font-specification:'OCR A Extended, Normal';font-variant-ligatures:normal;font-variant-caps:normal;font-variant-numeric:normal;font-feature-settings:normal;text-align:start;letter-spacing:0px;word-spacing:0px;writing-mode:lr-tb;text-anchor:start;fill:#000000;fill-opacity:1;stroke:none;stroke-width:0.26458332"
       aria-label="RXD"
       transform="translate(0.08719214,-0.08719214)" />
    <g
       id="text1922-2"
       style="font-style:normal;font-variant:normal;font-weight:bold;font-stretch:normal;font-size:1.41111112px;line-height:1.25;font-family:'Droid Sans';-inkscape-font-specification:'Droid Sans, Bold';font-variant-ligatures:normal;font-variant-caps:normal;font-variant-numeric:normal;font-feature-settings:normal;text-align:start;letter-spacing:0px;word-spacing:0px;writing-mode:lr-tb;text-anchor:start;fill:#000000;fill-opacity:1;stroke:none;stroke-width:0.26458332"
       aria-label="TXD"
       transform="translate(0.08719214,-0.08719214)" />
    <g
       id="text1922-2-4-5"
       style="font-style:normal;font-variant:normal;font-weight:bold;font-stretch:normal;font-size:1.41111112px;line-height:1.25;font-family:'Droid Sans';-inkscape-font-specification:'Droid Sans, Bold';font-variant-ligatures:normal;font-variant-caps:normal;font-variant-numeric:normal;font-feature-settings:normal;text-align:start;letter-spacing:0px;word-spacing:0px;writing-mode:lr-tb;text-anchor:start;fill:#000000;fill-opacity:1;stroke:none;stroke-width:0.26458332"
       aria-label="VCC"
       transform="translate(0.08719214,-0.08719214)" />
    <g
       id="silkscreen">
      <rect
         y="281.98834"
         x="0.33138707"
         height="14.836576"
         width="42.836575"
         id="rect826"
         style="font-style:normal;font-variant:normal;font-weight:bold;font-stretch:normal;font-size:1.41111112px;line-height:1.25;font-family:'Droid Sans';-inkscape-font-specification:'Droid Sans, Bold';font-variant-ligatures:normal;font-variant-caps:normal;font-variant-numeric:normal;font-feature-settings:normal;text-align:start;letter-spacing:0px;word-spacing:0px;writing-mode:lr-tb;text-anchor:start;opacity:1;fill:none;fill-opacity:1;stroke:#000000;stroke-width:0.16342413;stroke-miterlimit:4;stroke-dasharray:none;stroke-opacity:1;paint-order:stroke fill markers" />
      <path
         transform="translate(0.08719214,-0.08719214)"
         d="m 38.328125,283.9707 c -0.08452,0 -0.158923,0.0128 -0.224609,0.0371 -0.06523,0.0239 -0.121003,0.0585 -0.166016,0.10352 -0.04456,0.0445 -0.0786,0.0982 -0.101562,0.16211 -0.02297,0.0639 -0.0332,0.13583 -0.0332,0.21484 0,0.0846 0.0086,0.15988 0.0293,0.22461 0.02067,0.0643 0.05229,0.11798 0.0918,0.16211 0.03996,0.0436 0.0886,0.0771 0.146484,0.0996 0.05834,0.0221 0.12584,0.0332 0.201172,0.0332 0.03583,0 0.06792,-0.001 0.09961,-0.004 0.03215,-0.003 0.06286,-0.007 0.0918,-0.0117 0.0294,-0.005 0.05884,-0.0107 0.08594,-0.0176 0.02711,-0.007 0.05344,-0.0167 0.08008,-0.0254 v -0.52149 h -0.40039 v 0.17774 h 0.191406 v 0.20898 c -0.01838,0.004 -0.03747,0.007 -0.05859,0.01 -0.02067,0.003 -0.04585,0.006 -0.07617,0.006 -0.04639,0 -0.08756,-0.009 -0.121094,-0.0254 -0.03307,-0.0165 -0.05895,-0.0405 -0.08008,-0.0703 -0.02113,-0.0299 -0.03677,-0.0646 -0.04687,-0.10547 -0.0096,-0.0414 -0.01563,-0.0871 -0.01563,-0.13672 0,-0.0519 0.0072,-0.0984 0.02148,-0.14063 0.01424,-0.0422 0.03391,-0.0795 0.06055,-0.10937 0.02664,-0.0299 0.06045,-0.0523 0.09766,-0.0684 0.03767,-0.0165 0.07815,-0.0254 0.125,-0.0254 0.04318,0 0.08595,0.005 0.125,0.0156 0.03951,0.0106 0.07424,0.0254 0.105469,0.041 l 0.07031,-0.17188 c -0.04272,-0.0184 -0.08918,-0.0335 -0.140625,-0.0449 -0.05144,-0.0115 -0.104456,-0.0176 -0.158203,-0.0176 z m 0.541016,0.0156 v 1.00781 h 0.191406 v -0.47461 c 0,-0.0262 -5.53e-4,-0.0553 -0.002,-0.0879 -8.67e-4,-0.0331 -0.002,-0.0658 -0.0039,-0.0957 -0.0019,-0.0349 -0.0051,-0.0701 -0.0078,-0.10547 h 0.0059 l 0.396485,0.76367 h 0.271484 v -1.00781 h -0.191406 v 0.47656 0.0391 c 4.74e-4,0.0143 -4.59e-4,0.0293 0,0.0449 4.74e-4,0.0152 0.0015,0.0293 0.002,0.0449 9.41e-4,0.0152 0.0015,0.0303 0.002,0.0449 0.0018,0.034 0.0045,0.0686 0.0059,0.10351 h -0.0039 l -0.396484,-0.7539 z m 1.105468,0 v 1.00781 h 0.265625 c 0.08131,0 0.153411,-0.0116 0.216797,-0.0332 0.06385,-0.0216 0.116516,-0.053 0.160157,-0.0957 0.0441,-0.0432 0.07859,-0.0982 0.101562,-0.16211 0.02343,-0.0643 0.03516,-0.13767 0.03516,-0.22265 0,-0.0809 -0.01219,-0.15331 -0.03516,-0.21485 -0.02251,-0.0616 -0.05344,-0.11296 -0.0957,-0.15429 -0.04226,-0.0418 -0.09458,-0.0726 -0.154297,-0.0937 -0.05926,-0.0211 -0.125264,-0.0312 -0.199219,-0.0312 z m 0.212891,0.17578 h 0.09961 c 0.03996,0 0.07469,0.007 0.105469,0.0195 0.03124,0.0129 0.057,0.0319 0.07813,0.0586 0.02159,0.0267 0.0378,0.0607 0.04883,0.10157 0.01149,0.0404 0.01758,0.0885 0.01758,0.14453 0,0.11069 -0.02289,0.19291 -0.06836,0.24805 -0.04502,0.0551 -0.11114,0.084 -0.201172,0.084 H 40.1875 Z m -37.0585938,0.94141 c -0.084519,0 -0.1589227,0.0128 -0.2246093,0.0371 -0.065227,0.0239 -0.1209997,0.0585 -0.1660157,0.10352 -0.044556,0.0445 -0.078595,0.0982 -0.1015624,0.16211 -0.022967,0.0639 -0.033203,0.13584 -0.033203,0.21484 0,0.0846 0.00863,0.15793 0.029297,0.22266 0.02067,0.0643 0.052293,0.11804 0.091797,0.16211 0.039963,0.0436 0.088607,0.0771 0.1464844,0.0996 0.058337,0.0221 0.123886,0.0332 0.1992187,0.0332 0.035829,0 0.069868,-0.001 0.1015625,-0.004 0.032155,-0.003 0.062858,-0.005 0.091797,-0.01 0.029398,-0.005 0.058836,-0.0127 0.085937,-0.0195 0.027101,-0.007 0.053436,-0.0147 0.080078,-0.0234 v -0.52148 H 3.0292969 v 0.17578 h 0.1914062 v 0.21094 c -0.018374,0.004 -0.037464,0.007 -0.058594,0.01 -0.020671,0.003 -0.045855,0.004 -0.076172,0.004 -0.046394,0 -0.087562,-0.009 -0.1210937,-0.0254 -0.033073,-0.0165 -0.058948,-0.0385 -0.080078,-0.0684 -0.021129,-0.0299 -0.036769,-0.0666 -0.046875,-0.10742 -0.00965,-0.0414 -0.015625,-0.0852 -0.015625,-0.13477 0,-0.0519 0.00724,-0.10031 0.021484,-0.14258 0.01424,-0.0422 0.033905,-0.0775 0.060547,-0.10742 0.026642,-0.0299 0.060449,-0.0523 0.097656,-0.0684 0.037666,-0.0165 0.078147,-0.0254 0.125,-0.0254 0.043178,0 0.085955,0.005 0.125,0.0156 0.039504,0.0106 0.074233,0.0235 0.1054688,0.0391 l 0.070312,-0.16992 c -0.042719,-0.0184 -0.089178,-0.0335 -0.140625,-0.0449 -0.051447,-0.0115 -0.1044598,-0.0176 -0.1582032,-0.0176 z m 0.5410157,0.0137 v 1.00781 h 0.1914062 v -0.47266 c 0,-0.0262 -5.731e-4,-0.0572 -0.00195,-0.0898 -9.133e-4,-0.0331 -0.00207,-0.0639 -0.00391,-0.0937 -0.00184,-0.0349 -0.00506,-0.0701 -0.00781,-0.10547 h 0.00586 L 4.25,286.125 h 0.2714844 v -1.00781 H 4.3300781 v 0.47851 0.0371 c 4.607e-4,0.0143 -4.593e-4,0.0293 0,0.0449 4.607e-4,0.0152 0.00149,0.0313 0.00195,0.0469 9.207e-4,0.0152 0.00149,0.0303 0.00195,0.0449 0.00183,0.034 0.00448,0.0686 0.00586,0.10352 h -0.00586 l -0.3945313,-0.75586 z m 1.1054687,0 v 1.00781 h 0.265625 c 0.081304,0 0.1534069,-0.01 0.2167969,-0.0312 0.063849,-0.0216 0.1165182,-0.0549 0.1601563,-0.0977 0.044097,-0.0432 0.078595,-0.0963 0.1015624,-0.16015 0.023427,-0.0643 0.035156,-0.13963 0.035156,-0.22461 0,-0.0809 -0.012189,-0.15136 -0.035156,-0.21289 -0.022508,-0.0616 -0.053443,-0.11297 -0.095703,-0.1543 -0.042259,-0.0418 -0.094581,-0.0726 -0.1542969,-0.0937 -0.059256,-0.0211 -0.125264,-0.0332 -0.1992187,-0.0332 z m 0.2128906,0.17578 h 0.099609 c 0.039963,0 0.074693,0.007 0.1054688,0.0195 0.031235,0.0129 0.056995,0.0339 0.078125,0.0605 0.021589,0.0267 0.037804,0.0587 0.048828,0.0996 0.011484,0.0404 0.017578,0.0885 0.017578,0.14453 0,0.11069 -0.022884,0.19486 -0.068359,0.25 -0.045016,0.0551 -0.1130931,0.082 -0.203125,0.082 h -0.078125 z m -2.3847656,2.38867 v 1.00781 h 0.2128906 v -0.38672 h 0.09375 l 0.2167969,0.38672 h 0.2382813 l -0.011719,-0.0195 c -0.00827,-0.0124 -0.018388,-0.0282 -0.03125,-0.0488 -0.012861,-0.0207 -0.028385,-0.0441 -0.044922,-0.0703 -0.016077,-0.0262 -0.033326,-0.0525 -0.050781,-0.0801 -0.040423,-0.0643 -0.085731,-0.13894 -0.1367187,-0.2207 0.022049,-0.0111 0.042748,-0.0249 0.0625,-0.041 0.020211,-0.0165 0.037576,-0.035 0.052734,-0.0566 0.015618,-0.0221 0.027923,-0.0462 0.037109,-0.0742 0.00919,-0.028 0.013672,-0.0593 0.013672,-0.0937 0,-0.10153 -0.030244,-0.17697 -0.091797,-0.22657 -0.061552,-0.0501 -0.15608,-0.0762 -0.2851563,-0.0762 z m 0.7617188,1.00781 h 0.2304687 l 0.2050781,-0.38086 0.2070313,0.38086 H 4.25 l -0.3105469,-0.50781 0.2871094,-0.5 H 3.9960938 L 3.8125,288.04492 3.6230469,287.68164 H 3.3867188 l 0.2851562,0.48828 z m 1.0117187,-1.00781 v 1.00781 h 0.265625 c 0.081304,0 0.1534069,-0.0116 0.2167969,-0.0332 0.063849,-0.0216 0.1184714,-0.053 0.1621094,-0.0957 0.044097,-0.0432 0.076642,-0.0963 0.099609,-0.16016 0.023427,-0.0643 0.035156,-0.13963 0.035156,-0.22461 0,-0.0809 -0.010236,-0.15136 -0.033203,-0.21289 -0.022508,-0.0616 -0.055396,-0.11296 -0.097656,-0.1543 -0.042259,-0.0418 -0.092628,-0.0726 -0.1523437,-0.0937 -0.059256,-0.0211 -0.1272172,-0.0332 -0.2011719,-0.0332 z m -1.5605469,0.17578 h 0.054688 c 0.057878,0 0.099392,0.009 0.1269531,0.0293 0.027561,0.0202 0.042969,0.0557 0.042969,0.10351 0,0.046 -0.013339,0.0797 -0.039063,0.10352 -0.025724,0.0234 -0.067698,0.0352 -0.1269531,0.0352 h -0.058594 z m 1.7753907,0 h 0.097656 c 0.039963,0 0.076646,0.007 0.1074219,0.0195 0.031235,0.0129 0.056995,0.0319 0.078125,0.0586 0.021589,0.0267 0.037804,0.0607 0.048828,0.10156 0.011484,0.0404 0.017578,0.0885 0.017578,0.14453 0,0.11069 -0.022884,0.19487 -0.068359,0.25 -0.045016,0.0551 -0.1130932,0.082 -0.203125,0.082 h -0.078125 z m 34.6660151,1.17578 v 1.00782 h 0.355469 c 0.0542,0 0.101812,-0.008 0.144531,-0.0215 0.04318,-0.0133 0.07952,-0.0318 0.109376,-0.0566 0.03031,-0.0253 0.05423,-0.056 0.07031,-0.0918 0.01608,-0.0363 0.02344,-0.0771 0.02344,-0.12304 0,-0.0395 -0.004,-0.074 -0.01367,-0.10157 -0.0092,-0.0275 -0.02253,-0.0485 -0.03906,-0.0664 -0.01608,-0.0183 -0.03459,-0.0328 -0.05664,-0.043 -0.02159,-0.0107 -0.04505,-0.0201 -0.07031,-0.0254 v -0.006 c 0.02481,-0.004 0.04562,-0.013 0.06445,-0.0254 0.01929,-0.0128 0.03551,-0.028 0.04883,-0.0469 0.01333,-0.0189 0.02436,-0.0416 0.03125,-0.0664 0.0069,-0.0248 0.0098,-0.0516 0.0098,-0.0801 0,-0.0473 -0.0089,-0.087 -0.02539,-0.11914 -0.01608,-0.0326 -0.04011,-0.0584 -0.07227,-0.0781 -0.03215,-0.0202 -0.07137,-0.0342 -0.119141,-0.043 -0.04778,-0.009 -0.102629,-0.0137 -0.166016,-0.0137 z m 0.212891,0.17383 h 0.101563 c 0.05237,0 0.08939,0.008 0.113281,0.0254 0.02435,0.0165 0.03711,0.0454 0.03711,0.084 0,0.0193 -0.0027,0.0361 -0.0078,0.0508 -0.0046,0.0142 -0.01241,0.0255 -0.02344,0.0351 -0.01103,0.009 -0.02506,0.0162 -0.04297,0.0215 -0.01791,0.005 -0.03977,0.008 -0.06641,0.008 h -0.111328 z m 0.880859,0.006 v 0.25391 h -0.253906 v 0.15234 h 0.253906 v 0.25 h 0.150391 v -0.25 h 0.251953 v -0.15234 h -0.251953 v -0.25391 z m -0.880859,0.38867 h 0.119141 c 0.02939,0 0.05447,0.002 0.07422,0.008 0.01975,0.006 0.03689,0.0144 0.04883,0.0254 0.01239,0.0111 0.02032,0.0254 0.02539,0.041 0.0051,0.0151 0.0078,0.0319 0.0078,0.0508 0,0.0207 -0.0027,0.0396 -0.0078,0.0566 -0.005,0.017 -0.01344,0.031 -0.02539,0.043 -0.01148,0.0117 -0.02758,0.0207 -0.04687,0.0274 -0.01883,0.007 -0.04229,0.01 -0.07031,0.01 h -0.125 z m -36.8671874,0.64453 v 0.17774 h 0.2519532 v 0.83008 h 0.2128906 v -0.83008 h 0.2519531 v -0.17774 z m 0.7675782,0 0.2832031,0.48829 -0.3046875,0.51953 H 3.578125 l 0.2050781,-0.38086 0.2070313,0.38086 H 4.234375 l -0.3125,-0.50782 0.2871094,-0.5 H 3.9785156 l -0.1835937,0.36329 -0.1894531,-0.36329 z m 0.9902343,0 v 1.00782 H 4.625 c 0.081304,0 0.1534069,-0.0116 0.2167969,-0.0332 0.063849,-0.0216 0.1184714,-0.053 0.1621093,-0.0957 0.044097,-0.0432 0.078595,-0.0963 0.1015626,-0.16016 0.023427,-0.0643 0.035156,-0.13963 0.035156,-0.22461 0,-0.0809 -0.012189,-0.15135 -0.035156,-0.21289 -0.022508,-0.0616 -0.055396,-0.11296 -0.097656,-0.15429 -0.04226,-0.0418 -0.092628,-0.0746 -0.1523437,-0.0957 -0.059256,-0.0211 -0.1252641,-0.0312 -0.1992188,-0.0312 z m 0.2128907,0.17579 h 0.097656 c 0.039963,0 0.076646,0.007 0.1074219,0.0195 0.031235,0.0129 0.056995,0.0319 0.078125,0.0586 0.021589,0.0267 0.037803,0.0607 0.048828,0.10156 0.011483,0.0404 0.017578,0.0885 0.017578,0.14453 0,0.11069 -0.022884,0.19487 -0.068359,0.25 -0.045016,0.0551 -0.1130932,0.082 -0.203125,0.082 h -0.078125 z m -0.5839844,2.375 c -0.076252,0 -0.144329,0.0133 -0.203125,0.0391 -0.058796,0.0253 -0.1084742,0.0595 -0.1484375,0.10547 -0.039963,0.0459 -0.069173,0.10215 -0.089844,0.16601 -0.020671,0.0634 -0.03125,0.13273 -0.03125,0.20899 0,0.0776 0.00943,0.14753 0.027344,0.21093 0.017914,0.0634 0.044824,0.11711 0.082031,0.16211 0.037207,0.045 0.083666,0.0807 0.140625,0.10547 0.056959,0.0248 0.1254956,0.0371 0.203125,0.0371 0.027101,0 0.050792,-0.002 0.074219,-0.004 0.023886,-0.002 0.047804,-0.004 0.070312,-0.008 0.022508,-0.004 0.044817,-0.009 0.066406,-0.0156 0.021589,-0.006 0.042404,-0.0142 0.064453,-0.0234 v -0.17969 c -0.048231,0.017 -0.091471,0.0299 -0.1328126,0.0391 -0.040882,0.009 -0.082165,0.0137 -0.1230468,0.0137 -0.044097,0 -0.08308,-0.007 -0.1152344,-0.0215 -0.031695,-0.0152 -0.057454,-0.0379 -0.078125,-0.0664 -0.020211,-0.0289 -0.034816,-0.0637 -0.044922,-0.10547 -0.00965,-0.0418 -0.015625,-0.0888 -0.015625,-0.14258 0,-0.0528 0.00655,-0.10031 0.017578,-0.14258 0.011024,-0.0427 0.025745,-0.08 0.046875,-0.10937 0.021589,-0.0299 0.048843,-0.0528 0.080078,-0.0684 0.031695,-0.0161 0.068493,-0.0234 0.109375,-0.0234 0.036747,0 0.073202,0.006 0.1113281,0.0195 0.038125,0.0133 0.075615,0.0289 0.1132813,0.0469 l 0.070312,-0.17383 c -0.045935,-0.0221 -0.094003,-0.0384 -0.1445312,-0.0508 -0.050069,-0.0129 -0.100322,-0.0195 -0.1503906,-0.0195 z m 0.8710937,0 c -0.076252,0 -0.144329,0.0133 -0.203125,0.0391 -0.058796,0.0253 -0.1084741,0.0595 -0.1484375,0.10547 -0.039963,0.0459 -0.069173,0.10215 -0.089844,0.16601 -0.020671,0.0634 -0.03125,0.13273 -0.03125,0.20899 0,0.0776 0.00748,0.14753 0.025391,0.21093 0.017914,0.0634 0.046777,0.11711 0.083984,0.16211 0.037207,0.045 0.083666,0.0807 0.140625,0.10547 0.056959,0.0248 0.1235424,0.0371 0.2011719,0.0371 0.027101,0 0.052745,-0.002 0.076172,-0.004 0.023886,-0.002 0.047805,-0.004 0.070312,-0.008 0.022508,-0.004 0.044817,-0.009 0.066406,-0.0156 0.021589,-0.006 0.042404,-0.0142 0.064453,-0.0234 v -0.17969 c -0.048231,0.017 -0.093424,0.0299 -0.1347656,0.0391 -0.040882,0.009 -0.080212,0.0137 -0.1210938,0.0137 -0.044097,0 -0.08308,-0.007 -0.1152343,-0.0215 -0.031695,-0.0152 -0.057454,-0.0379 -0.078125,-0.0664 -0.020211,-0.0289 -0.034817,-0.0637 -0.044922,-0.10547 -0.00965,-0.0418 -0.015625,-0.0888 -0.015625,-0.14258 0,-0.0528 0.00655,-0.10031 0.017578,-0.14258 0.011024,-0.0427 0.025745,-0.08 0.046875,-0.10937 0.021589,-0.0299 0.048843,-0.0528 0.080078,-0.0684 0.031695,-0.0161 0.068493,-0.0234 0.109375,-0.0234 0.036747,0 0.073202,0.006 0.1113281,0.0195 0.038125,0.0133 0.075615,0.0289 0.1132813,0.0469 l 0.070312,-0.17383 c -0.045935,-0.0221 -0.094003,-0.0384 -0.1445312,-0.0508 -0.050069,-0.0129 -0.100322,-0.0195 -0.1503907,-0.0195 z m -2.2578125,0.0137 0.3125,1.00781 h 0.2324219 l 0.3144531,-1.00781 H 3.2480469 l -0.1679688,0.60742 c -0.0023,0.008 -0.00713,0.0207 -0.011719,0.0391 -0.00413,0.0183 -0.00713,0.0385 -0.011719,0.0606 -0.00459,0.0216 -0.00954,0.0443 -0.013672,0.0664 -0.00413,0.0221 -0.00747,0.0396 -0.00977,0.0547 -0.0023,-0.0151 -0.00563,-0.0326 -0.00977,-0.0547 -0.00413,-0.022 -0.00908,-0.0443 -0.013672,-0.0664 -0.00413,-0.022 -0.00759,-0.0421 -0.011719,-0.0606 -0.00367,-0.0184 -0.00551,-0.0313 -0.00781,-0.0391 l -0.171875,-0.60742 z m 36.8437504,1.22851 -0.328125,1.01172 h 0.216797 l 0.06836,-0.24023 h 0.347656 l 0.06836,0.24023 h 0.216797 l -0.330078,-1.01172 z m 0.130859,0.14258 c 0.0023,0.0161 0.0062,0.0357 0.01172,0.0586 0.0055,0.023 0.01158,0.0454 0.01758,0.0684 0.0064,0.0225 0.01205,0.0436 0.01758,0.0625 0.0055,0.0188 0.009,0.0328 0.01172,0.041 l 0.06641,0.21875 h -0.246094 l 0.0625,-0.21875 c 0.0014,-0.005 0.0051,-0.0128 0.0078,-0.0234 0.0032,-0.0105 0.0061,-0.0233 0.0098,-0.0371 0.0037,-0.0138 0.0076,-0.0293 0.01172,-0.0449 0.0041,-0.0157 0.0081,-0.0298 0.01172,-0.0449 0.0042,-0.0156 0.007,-0.0311 0.0098,-0.0449 0.0032,-0.0137 0.0059,-0.025 0.0078,-0.0352 z m 0.773437,0.043 v 0.25391 h -0.253906 v 0.15039 h 0.253906 v 0.25 h 0.150391 v -0.25 h 0.251953 v -0.15039 h -0.251953 v -0.25391 z"
         id="path2117"
         style="font-style:normal;font-variant:normal;font-weight:bold;font-stretch:normal;font-size:1.41111112px;line-height:1.25;font-family:'Droid Sans';-inkscape-font-specification:'Droid Sans, Bold';font-variant-ligatures:normal;font-variant-caps:normal;font-variant-numeric:normal;font-feature-settings:normal;text-align:start;letter-spacing:0px;word-spacing:0px;writing-mode:lr-tb;text-anchor:start;fill:#ffffff;fill-opacity:1;stroke:none;stroke-width:0.26458332"
         inkscape:original="M 38.328125 283.9707 C 38.243605 283.9707 38.169202 283.98348 38.103516 284.00781 C 38.038286 284.03171 37.982513 284.06633 37.9375 284.11133 C 37.892943 284.15587 37.858904 284.20957 37.835938 284.27344 C 37.812971 284.33729 37.802734 284.40927 37.802734 284.48828 C 37.802734 284.57283 37.811358 284.64816 37.832031 284.71289 C 37.852698 284.77716 37.884321 284.83087 37.923828 284.875 C 37.963789 284.9186 38.012432 284.95208 38.070312 284.97461 C 38.128649 284.99668 38.196152 285.00781 38.271484 285.00781 C 38.307315 285.00781 38.3394 285.00657 38.371094 285.00391 C 38.403247 285.00124 38.433951 284.99685 38.462891 284.99219 C 38.492291 284.98712 38.521728 284.98148 38.548828 284.97461 C 38.575935 284.96728 38.602266 284.95795 38.628906 284.94922 L 38.628906 284.42773 L 38.228516 284.42773 L 38.228516 284.60547 L 38.419922 284.60547 L 38.419922 284.81445 C 38.401542 284.81845 38.382455 284.82155 38.361328 284.82422 C 38.340661 284.82689 38.315476 284.83008 38.285156 284.83008 C 38.238764 284.83008 38.197596 284.82122 38.164062 284.80469 C 38.130989 284.78815 38.105111 284.76424 38.083984 284.73438 C 38.062858 284.7045 38.047216 284.66977 38.037109 284.62891 C 38.027463 284.58755 38.021484 284.54179 38.021484 284.49219 C 38.021484 284.44029 38.028729 284.39383 38.042969 284.35156 C 38.057209 284.30932 38.076876 284.27205 38.103516 284.24219 C 38.130156 284.21232 38.163965 284.18989 38.201172 284.17383 C 38.238839 284.15729 38.279319 284.14844 38.326172 284.14844 C 38.369348 284.14844 38.412125 284.15346 38.451172 284.16406 C 38.490678 284.17466 38.525407 284.18948 38.556641 284.20508 L 38.626953 284.0332 C 38.584234 284.0148 38.537775 283.99975 38.486328 283.98828 C 38.434885 283.97681 38.381872 283.9707 38.328125 283.9707 z M 38.869141 283.98633 L 38.869141 284.99414 L 39.060547 284.99414 L 39.060547 284.51953 C 39.060547 284.49333 39.059994 284.46424 39.058594 284.43164 C 39.057727 284.39857 39.056554 284.3658 39.054688 284.33594 C 39.052821 284.30106 39.049608 284.26587 39.046875 284.23047 L 39.052734 284.23047 L 39.449219 284.99414 L 39.720703 284.99414 L 39.720703 283.98633 L 39.529297 283.98633 L 39.529297 284.46289 L 39.529297 284.50195 C 39.529771 284.51622 39.528838 284.53127 39.529297 284.54688 C 39.529771 284.56208 39.530791 284.5762 39.53125 284.5918 C 39.532191 284.607 39.532744 284.62205 39.533203 284.63672 C 39.535003 284.67069 39.537663 284.7053 39.539062 284.74023 L 39.535156 284.74023 L 39.138672 283.98633 L 38.869141 283.98633 z M 39.974609 283.98633 L 39.974609 284.99414 L 40.240234 284.99414 C 40.321542 284.99414 40.393645 284.98254 40.457031 284.96094 C 40.520878 284.93934 40.573547 284.90797 40.617188 284.86523 C 40.661285 284.82207 40.695783 284.76699 40.71875 284.70312 C 40.742177 284.63882 40.753906 284.56545 40.753906 284.48047 C 40.753906 284.3996 40.741717 284.32716 40.71875 284.26562 C 40.696243 284.20406 40.665307 284.15266 40.623047 284.11133 C 40.580786 284.06953 40.528463 284.03871 40.46875 284.01758 C 40.409494 283.99644 40.343486 283.98633 40.269531 283.98633 L 39.974609 283.98633 z M 40.1875 284.16211 L 40.287109 284.16211 C 40.327069 284.16211 40.361798 284.16877 40.392578 284.18164 C 40.423818 284.19451 40.449576 284.21357 40.470703 284.24023 C 40.49229 284.26689 40.508505 284.30093 40.519531 284.3418 C 40.531018 284.38219 40.537109 284.43026 40.537109 284.48633 C 40.537109 284.59702 40.514223 284.67924 40.46875 284.73438 C 40.423734 284.78951 40.35761 284.81836 40.267578 284.81836 L 40.1875 284.81836 L 40.1875 284.16211 z M 3.1289062 285.10352 C 3.0443868 285.10352 2.9699835 285.11629 2.9042969 285.14062 C 2.8390698 285.16453 2.7832972 285.19914 2.7382812 285.24414 C 2.6937247 285.28868 2.6596861 285.34238 2.6367188 285.40625 C 2.6137514 285.4701 2.6035156 285.54209 2.6035156 285.62109 C 2.6035156 285.70565 2.6121418 285.77902 2.6328125 285.84375 C 2.6534825 285.90809 2.6851054 285.96179 2.7246094 286.00586 C 2.7645728 286.04946 2.8132164 286.08294 2.8710938 286.10547 C 2.9294307 286.12754 2.9949798 286.13867 3.0703125 286.13867 C 3.1061417 286.13867 3.1401803 286.13743 3.171875 286.13477 C 3.2040297 286.1321 3.2347332 286.12967 3.2636719 286.125 C 3.2930699 286.11993 3.322508 286.11234 3.3496094 286.10547 C 3.3767107 286.09814 3.4030455 286.09076 3.4296875 286.08203 L 3.4296875 285.56055 L 3.0292969 285.56055 L 3.0292969 285.73633 L 3.2207031 285.73633 L 3.2207031 285.94727 C 3.2023291 285.95127 3.1832394 285.95436 3.1621094 285.95703 C 3.1414387 285.9597 3.1162542 285.96094 3.0859375 285.96094 C 3.0395433 285.96094 2.9983758 285.95208 2.9648438 285.93555 C 2.9317711 285.91901 2.9058956 285.89705 2.8847656 285.86719 C 2.8636363 285.83731 2.8479966 285.80063 2.8378906 285.75977 C 2.8282446 285.71841 2.8222656 285.6746 2.8222656 285.625 C 2.8222656 285.5731 2.82951 285.52469 2.84375 285.48242 C 2.85799 285.44018 2.8776549 285.40487 2.9042969 285.375 C 2.9309389 285.34513 2.9647458 285.32271 3.0019531 285.30664 C 3.0396195 285.29011 3.0800998 285.28125 3.1269531 285.28125 C 3.1701314 285.28125 3.2129085 285.28627 3.2519531 285.29688 C 3.2914571 285.30748 3.3261865 285.32034 3.3574219 285.33594 L 3.4277344 285.16602 C 3.3850151 285.14762 3.338556 285.13256 3.2871094 285.12109 C 3.2356624 285.10963 3.1826496 285.10352 3.1289062 285.10352 z M 3.6699219 285.11719 L 3.6699219 286.125 L 3.8613281 286.125 L 3.8613281 285.65234 C 3.8613281 285.62614 3.860755 285.5951 3.859375 285.5625 C 3.8584617 285.52943 3.8573088 285.49862 3.8554688 285.46875 C 3.8536288 285.43387 3.8504096 285.39868 3.8476562 285.36328 L 3.8535156 285.36328 L 4.25 286.125 L 4.5214844 286.125 L 4.5214844 285.11719 L 4.3300781 285.11719 L 4.3300781 285.5957 L 4.3300781 285.63281 C 4.3305388 285.64708 4.3296188 285.66213 4.3300781 285.67773 C 4.3305388 285.69293 4.3315719 285.70901 4.3320312 285.72461 C 4.3329519 285.73981 4.333525 285.75486 4.3339844 285.76953 C 4.3358177 285.8035 4.3384637 285.83811 4.3398438 285.87305 L 4.3339844 285.87305 L 3.9394531 285.11719 L 3.6699219 285.11719 z M 4.7753906 285.11719 L 4.7753906 286.125 L 5.0410156 286.125 C 5.1223197 286.125 5.1944225 286.11535 5.2578125 286.09375 C 5.3216614 286.07215 5.3743307 286.03883 5.4179688 285.99609 C 5.4620659 285.95293 5.4965639 285.8998 5.5195312 285.83594 C 5.5429579 285.77163 5.5546875 285.69631 5.5546875 285.61133 C 5.5546875 285.53046 5.5424986 285.45997 5.5195312 285.39844 C 5.4970232 285.33688 5.4660881 285.28547 5.4238281 285.24414 C 5.3815687 285.20234 5.3292466 285.17152 5.2695312 285.15039 C 5.2102756 285.12926 5.1442672 285.11719 5.0703125 285.11719 L 4.7753906 285.11719 z M 4.9882812 285.29297 L 5.0878906 285.29297 C 5.127854 285.29297 5.1625834 285.29963 5.1933594 285.3125 C 5.2245947 285.32537 5.2503544 285.34638 5.2714844 285.37305 C 5.2930737 285.39971 5.3092885 285.43179 5.3203125 285.47266 C 5.3317965 285.51305 5.3378906 285.56112 5.3378906 285.61719 C 5.3378906 285.72788 5.3150066 285.81205 5.2695312 285.86719 C 5.2245153 285.92232 5.1564381 285.94922 5.0664062 285.94922 L 4.9882812 285.94922 L 4.9882812 285.29297 z M 2.6035156 287.68164 L 2.6035156 288.68945 L 2.8164062 288.68945 L 2.8164062 288.30273 L 2.9101562 288.30273 L 3.1269531 288.68945 L 3.3652344 288.68945 L 3.3535156 288.66992 C 3.3452476 288.65752 3.3351276 288.64176 3.3222656 288.62109 C 3.3094043 288.60043 3.2938804 288.57698 3.2773438 288.55078 C 3.2612671 288.52458 3.2440178 288.49824 3.2265625 288.4707 C 3.18614 288.40639 3.1408311 288.33176 3.0898438 288.25 C 3.1118924 288.23893 3.1325918 288.22505 3.1523438 288.20898 C 3.1725551 288.19245 3.1899195 288.17394 3.2050781 288.15234 C 3.2206961 288.13028 3.2330008 288.10613 3.2421875 288.07812 C 3.2513742 288.05012 3.2558594 288.01884 3.2558594 287.98438 C 3.2558594 287.88285 3.2256152 287.80741 3.1640625 287.75781 C 3.1025102 287.70775 3.0079825 287.68164 2.8789062 287.68164 L 2.6035156 287.68164 z M 3.3652344 288.68945 L 3.5957031 288.68945 L 3.8007812 288.30859 L 4.0078125 288.68945 L 4.25 288.68945 L 3.9394531 288.18164 L 4.2265625 287.68164 L 3.9960938 287.68164 L 3.8125 288.04492 L 3.6230469 287.68164 L 3.3867188 287.68164 L 3.671875 288.16992 L 3.3652344 288.68945 z M 4.3769531 287.68164 L 4.3769531 288.68945 L 4.6425781 288.68945 C 4.7238821 288.68945 4.795985 288.67785 4.859375 288.65625 C 4.923224 288.63465 4.9778464 288.60328 5.0214844 288.56055 C 5.0655816 288.51739 5.0981264 288.46426 5.1210938 288.40039 C 5.1445204 288.33608 5.15625 288.26076 5.15625 288.17578 C 5.15625 288.09492 5.1460142 288.02442 5.1230469 287.96289 C 5.1005389 287.90133 5.0676506 287.84993 5.0253906 287.80859 C 4.9831312 287.76679 4.9327622 287.73598 4.8730469 287.71484 C 4.8137912 287.69371 4.7458297 287.68164 4.671875 287.68164 L 4.3769531 287.68164 z M 2.8164062 287.85742 L 2.8710938 287.85742 C 2.9289715 287.85742 2.9704862 287.86652 2.9980469 287.88672 C 3.0256075 287.9069 3.0410156 287.94243 3.0410156 287.99023 C 3.0410156 288.03619 3.0276765 288.06988 3.0019531 288.09375 C 2.9762295 288.11715 2.9342553 288.12891 2.875 288.12891 L 2.8164062 288.12891 L 2.8164062 287.85742 z M 4.5917969 287.85742 L 4.6894531 287.85742 C 4.7294165 287.85742 4.766099 287.86409 4.796875 287.87695 C 4.8281103 287.88982 4.85387 287.90888 4.875 287.93555 C 4.8965893 287.9622 4.9128041 287.99624 4.9238281 288.03711 C 4.9353121 288.07751 4.9414062 288.12557 4.9414062 288.18164 C 4.9414062 288.29233 4.9185222 288.37651 4.8730469 288.43164 C 4.8280309 288.48677 4.7599537 288.51367 4.6699219 288.51367 L 4.5917969 288.51367 L 4.5917969 287.85742 z M 39.257812 289.0332 L 39.257812 290.04102 L 39.613281 290.04102 C 39.667484 290.04102 39.715093 290.03286 39.757812 290.01953 C 39.800989 290.0062 39.837328 289.98769 39.867188 289.96289 C 39.897501 289.93762 39.92142 289.90689 39.9375 289.87109 C 39.95358 289.83481 39.960938 289.79398 39.960938 289.74805 C 39.960938 289.70851 39.956912 289.67402 39.947266 289.64648 C 39.938072 289.61895 39.924736 289.59801 39.908203 289.58008 C 39.892123 289.56174 39.873609 289.54724 39.851562 289.53711 C 39.829976 289.52638 39.806517 289.51705 39.78125 289.51172 L 39.78125 289.50586 C 39.806057 289.50173 39.82687 289.49287 39.845703 289.48047 C 39.864996 289.46767 39.881211 289.45246 39.894531 289.43359 C 39.907858 289.41473 39.918895 289.39199 39.925781 289.36719 C 39.932668 289.34239 39.935547 289.31558 39.935547 289.28711 C 39.935547 289.23978 39.92669 289.2001 39.910156 289.16797 C 39.894076 289.13537 39.870044 289.10958 39.837891 289.08984 C 39.805737 289.06964 39.766523 289.05561 39.71875 289.04688 C 39.670975 289.03767 39.616121 289.0332 39.552734 289.0332 L 39.257812 289.0332 z M 39.470703 289.20703 L 39.572266 289.20703 C 39.624631 289.20703 39.66166 289.21542 39.685547 289.23242 C 39.709894 289.24896 39.722656 289.27781 39.722656 289.31641 C 39.722656 289.33574 39.71991 289.35252 39.714844 289.36719 C 39.71025 289.38139 39.702433 289.39268 39.691406 289.40234 C 39.68038 289.41174 39.666351 289.41849 39.648438 289.42383 C 39.630524 289.42849 39.608671 289.43164 39.582031 289.43164 L 39.470703 289.43164 L 39.470703 289.20703 z M 40.351562 289.21289 L 40.351562 289.4668 L 40.097656 289.4668 L 40.097656 289.61914 L 40.351562 289.61914 L 40.351562 289.86914 L 40.501953 289.86914 L 40.501953 289.61914 L 40.753906 289.61914 L 40.753906 289.4668 L 40.501953 289.4668 L 40.501953 289.21289 L 40.351562 289.21289 z M 39.470703 289.60156 L 39.589844 289.60156 C 39.619237 289.60156 39.644309 289.60337 39.664062 289.60938 C 39.683816 289.61537 39.700951 289.62377 39.712891 289.63477 C 39.725277 289.64583 39.733215 289.66018 39.738281 289.67578 C 39.743348 289.69091 39.746094 289.7077 39.746094 289.72656 C 39.746094 289.74723 39.743348 289.7662 39.738281 289.7832 C 39.733235 289.8002 39.724837 289.81424 39.712891 289.82617 C 39.701411 289.83791 39.685309 289.84685 39.666016 289.85352 C 39.647182 289.86018 39.623723 289.86328 39.595703 289.86328 L 39.470703 289.86328 L 39.470703 289.60156 z M 2.6035156 290.24609 L 2.6035156 290.42383 L 2.8554688 290.42383 L 2.8554688 291.25391 L 3.0683594 291.25391 L 3.0683594 290.42383 L 3.3203125 290.42383 L 3.3203125 290.24609 L 2.6035156 290.24609 z M 3.3710938 290.24609 L 3.6542969 290.73438 L 3.3496094 291.25391 L 3.578125 291.25391 L 3.7832031 290.87305 L 3.9902344 291.25391 L 4.234375 291.25391 L 3.921875 290.74609 L 4.2089844 290.24609 L 3.9785156 290.24609 L 3.7949219 290.60938 L 3.6054688 290.24609 L 3.3710938 290.24609 z M 4.3613281 290.24609 L 4.3613281 291.25391 L 4.625 291.25391 C 4.7063041 291.25391 4.7784069 291.2423 4.8417969 291.2207 C 4.9056458 291.1991 4.9602683 291.16773 5.0039062 291.125 C 5.0480035 291.08184 5.0825014 291.02871 5.1054688 290.96484 C 5.1288954 290.90054 5.140625 290.82521 5.140625 290.74023 C 5.140625 290.65937 5.1284361 290.58888 5.1054688 290.52734 C 5.0829608 290.46578 5.0500725 290.41438 5.0078125 290.37305 C 4.965553 290.33125 4.9151841 290.29848 4.8554688 290.27734 C 4.7962131 290.25621 4.7302047 290.24609 4.65625 290.24609 L 4.3613281 290.24609 z M 4.5742188 290.42188 L 4.671875 290.42188 C 4.7118383 290.42188 4.7485209 290.42854 4.7792969 290.44141 C 4.8105322 290.45427 4.8362919 290.47333 4.8574219 290.5 C 4.8790105 290.52665 4.8952253 290.5607 4.90625 290.60156 C 4.9177333 290.64196 4.9238281 290.69003 4.9238281 290.74609 C 4.9238281 290.85678 4.9009441 290.94096 4.8554688 290.99609 C 4.8104528 291.05123 4.7423756 291.07812 4.6523438 291.07812 L 4.5742188 291.07812 L 4.5742188 290.42188 z M 3.9902344 292.79688 C 3.9139826 292.79688 3.8459054 292.8102 3.7871094 292.83594 C 3.7283133 292.8612 3.6786352 292.89547 3.6386719 292.94141 C 3.5987092 292.98733 3.5694988 293.04356 3.5488281 293.10742 C 3.5281575 293.17081 3.5175781 293.24015 3.5175781 293.31641 C 3.5175781 293.39403 3.5270072 293.46394 3.5449219 293.52734 C 3.5628359 293.59075 3.5897458 293.64445 3.6269531 293.68945 C 3.6641604 293.73447 3.7106195 293.77012 3.7675781 293.79492 C 3.8245371 293.81972 3.8930737 293.83203 3.9707031 293.83203 C 3.9978045 293.83203 4.0214952 293.83012 4.0449219 293.82812 C 4.0688079 293.82613 4.0927264 293.82431 4.1152344 293.82031 C 4.1377424 293.81638 4.1600513 293.81135 4.1816406 293.80469 C 4.20323 293.79829 4.2240451 293.79045 4.2460938 293.78125 L 4.2460938 293.60156 C 4.1978626 293.61856 4.1546226 293.63142 4.1132812 293.64062 C 4.0723996 293.64982 4.0311164 293.6543 3.9902344 293.6543 C 3.946137 293.6543 3.907154 293.64755 3.875 293.63281 C 3.8433053 293.61761 3.8175457 293.59487 3.796875 293.56641 C 3.7766643 293.53747 3.7620591 293.50274 3.7519531 293.46094 C 3.7423071 293.41913 3.7363281 293.37209 3.7363281 293.31836 C 3.7363281 293.26554 3.7428822 293.21805 3.7539062 293.17578 C 3.7649302 293.13306 3.7796513 293.09581 3.8007812 293.06641 C 3.8223706 293.03654 3.849624 293.01365 3.8808594 292.99805 C 3.912554 292.98198 3.9493524 292.97461 3.9902344 292.97461 C 4.0269818 292.97461 4.0634365 292.98081 4.1015625 292.99414 C 4.1396879 293.00747 4.1771771 293.02308 4.2148438 293.04102 L 4.2851562 292.86719 C 4.2392216 292.84512 4.191153 292.82881 4.140625 292.81641 C 4.0905562 292.80354 4.040303 292.79688 3.9902344 292.79688 z M 4.8613281 292.79688 C 4.7850764 292.79688 4.7169991 292.8102 4.6582031 292.83594 C 4.599407 292.8612 4.549729 292.89547 4.5097656 292.94141 C 4.469803 292.98733 4.4405925 293.04356 4.4199219 293.10742 C 4.3992512 293.17081 4.3886719 293.24015 4.3886719 293.31641 C 4.3886719 293.39403 4.3961478 293.46394 4.4140625 293.52734 C 4.4319765 293.59075 4.4608395 293.64445 4.4980469 293.68945 C 4.5352541 293.73447 4.5817132 293.77012 4.6386719 293.79492 C 4.6956308 293.81972 4.7622143 293.83203 4.8398438 293.83203 C 4.8669451 293.83203 4.892589 293.83012 4.9160156 293.82812 C 4.9399016 293.82613 4.9638201 293.82431 4.9863281 293.82031 C 5.0088361 293.81638 5.031145 293.81135 5.0527344 293.80469 C 5.0743237 293.79829 5.0951388 293.79045 5.1171875 293.78125 L 5.1171875 293.60156 C 5.0689564 293.61856 5.0237632 293.63142 4.9824219 293.64062 C 4.9415403 293.64982 4.9022101 293.6543 4.8613281 293.6543 C 4.8172307 293.6543 4.7782478 293.64755 4.7460938 293.63281 C 4.7143991 293.61761 4.6886394 293.59487 4.6679688 293.56641 C 4.6477574 293.53747 4.6331522 293.50274 4.6230469 293.46094 C 4.6134009 293.41913 4.6074219 293.37209 4.6074219 293.31836 C 4.6074219 293.26554 4.613976 293.21805 4.625 293.17578 C 4.636024 293.13306 4.650745 293.09581 4.671875 293.06641 C 4.6934643 293.03654 4.7207178 293.01365 4.7519531 292.99805 C 4.7836478 292.98198 4.8204461 292.97461 4.8613281 292.97461 C 4.8980755 292.97461 4.9345302 292.98081 4.9726562 292.99414 C 5.0107816 293.00747 5.0482708 293.02308 5.0859375 293.04102 L 5.15625 292.86719 C 5.1103153 292.84512 5.0622467 292.82881 5.0117188 292.81641 C 4.96165 292.80354 4.9113968 292.79688 4.8613281 292.79688 z M 2.6035156 292.81055 L 2.9160156 293.81836 L 3.1484375 293.81836 L 3.4628906 292.81055 L 3.2480469 292.81055 L 3.0800781 293.41797 C 3.0777815 293.42624 3.0729527 293.43863 3.0683594 293.45703 C 3.0642254 293.47536 3.061234 293.49551 3.0566406 293.51758 C 3.0520466 293.53918 3.0471021 293.56192 3.0429688 293.58398 C 3.0388354 293.60605 3.0355031 293.62354 3.0332031 293.63867 C 3.0309031 293.62354 3.0275708 293.60605 3.0234375 293.58398 C 3.0193035 293.56198 3.014359 293.53964 3.0097656 293.51758 C 3.005631 293.49558 3.0021802 293.47543 2.9980469 293.45703 C 2.9943735 293.43863 2.9925344 293.42577 2.9902344 293.41797 L 2.8183594 292.81055 L 2.6035156 292.81055 z M 39.447266 294.03906 L 39.119141 295.05078 L 39.335938 295.05078 L 39.404297 294.81055 L 39.751953 294.81055 L 39.820312 295.05078 L 40.037109 295.05078 L 39.707031 294.03906 L 39.447266 294.03906 z M 39.578125 294.18164 C 39.580398 294.19777 39.58431 294.2173 39.589844 294.24023 C 39.59533 294.26323 39.601422 294.28566 39.607422 294.30859 C 39.613829 294.33106 39.619467 294.35223 39.625 294.37109 C 39.630533 294.38989 39.633985 294.40384 39.636719 294.41211 L 39.703125 294.63086 L 39.457031 294.63086 L 39.519531 294.41211 C 39.520931 294.40711 39.52461 294.39927 39.527344 294.38867 C 39.530564 294.37814 39.533443 294.36536 39.537109 294.35156 C 39.540783 294.33776 39.544695 294.32224 39.548828 294.30664 C 39.552968 294.29097 39.55688 294.27685 39.560547 294.26172 C 39.564707 294.24612 39.567579 294.2306 39.570312 294.2168 C 39.573513 294.20306 39.576258 294.19177 39.578125 294.18164 z M 40.351562 294.22461 L 40.351562 294.47852 L 40.097656 294.47852 L 40.097656 294.62891 L 40.351562 294.62891 L 40.351562 294.87891 L 40.501953 294.87891 L 40.501953 294.62891 L 40.753906 294.62891 L 40.753906 294.47852 L 40.501953 294.47852 L 40.501953 294.22461 L 40.351562 294.22461 z "
         inkscape:radius="0"
         sodipodi:type="inkscape:offset" />
    </g>
    <g
       id="copper0">
      <g
         transform="matrix(1,0,0,-1,0,579.00655)"
         id="g1658">
        <circle
           style="fill:none;stroke:#ffbf00;stroke-width:0.30479997"
           id="connector1pin"
           cx="1.8179762"
           cy="285.78915"
           r="0.41909999" />
        <circle
           style="fill:none;stroke:#ffbf00;stroke-width:0.30479997"
           id="connector7pin-7"
           cx="1.8179762"
           cy="288.32965"
           r="0.41909999" />
        <circle
           style="fill:none;stroke:#ffbf00;stroke-width:0.30479997"
           id="connector7pin-1"
           cx="1.8179762"
           cy="290.87018"
           r="0.41909999" />
        <circle
           style="fill:none;stroke:#ffbf00;stroke-width:0.30479997"
           id="connector4pin"
           cx="1.8179762"
           cy="293.41068"
           r="0.41909999" />
      </g>
      <g
         transform="matrix(1,0,0,-1,-0.01967236,578.85672)"
         id="g1694">
        <circle
           style="fill:none;stroke:#ffbf00;stroke-width:0.30479997"
           id="connector1pin-4"
           cx="41.68856"
           cy="284.36908"
           r="0.41909999" />
        <circle
           style="fill:none;stroke:#ffbf00;stroke-width:0.30479997"
           id="connector7pin-1-3"
           cx="41.68856"
           cy="289.45007"
           r="0.41909999" />
        <circle
           style="fill:none;stroke:#ffbf00;stroke-width:0.30479997"
           id="connector4pin-2"
           cx="41.68856"
           cy="294.5311"
           r="0.41909999" />
      </g>
    </g>
  </g>
</svg>
